<svg width="32" height="32" viewBox="0 0 32 32" fill="none" xmlns="http://www.w3.org/2000/svg">
<rect x="4" y="4" width="24" height="24" fill="white"/>
<path d="M25.8573 25.8577H21.7086V19.3605C21.7086 17.8112 21.6809 15.8168 19.5509 15.8168C17.39 15.8168 17.0594 17.5048 17.0594 19.2477V25.8573H12.9108V12.4965H16.8935V14.3224H16.9493C17.3478 13.6408 17.9238 13.0802 18.6158 12.7001C19.3078 12.3201 20.0899 12.1348 20.8789 12.1641C25.0838 12.1641 25.8591 14.9299 25.8591 18.5282L25.8573 25.8577ZM8.22956 10.6702C6.89989 10.6704 5.82178 9.59266 5.82156 8.26299C5.82134 6.93332 6.89902 5.85521 8.22869 5.85499C9.55836 5.85466 10.6365 6.93244 10.6367 8.26211C10.6368 8.90065 10.3833 9.51308 9.93184 9.96468C9.48042 10.4163 8.8681 10.6701 8.22956 10.6702ZM10.304 25.8578H6.15089V12.4965H10.3039V25.8577L10.304 25.8578ZM27.9256 2.00204H4.0662C2.93855 1.98935 2.01378 2.89268 2 4.02033V27.9792C2.01334 29.1075 2.938 30.0117 4.06609 29.9998H27.9256C29.0561 30.0138 29.9844 29.1096 30 27.9792V4.01847C29.9839 2.88863 29.0555 1.98541 27.9256 2.00018" fill="#0A66C2"/>
</svg>
