<svg width="32" height="32" viewBox="0 0 32 32" fill="none" xmlns="http://www.w3.org/2000/svg">
<path d="M16 31C24.2843 31 31 24.2843 31 16C31 7.71573 24.2843 1 16 1C7.71573 1 1 7.71573 1 16C1 24.2843 7.71573 31 16 31Z" fill="url(#paint0_linear)"/>
<path fill-rule="evenodd" clip-rule="evenodd" d="M7.7899 15.8414C12.1627 13.9363 15.0786 12.6803 16.5376 12.0734C20.7032 10.3408 21.5688 10.0398 22.133 10.0299C22.2571 10.0277 22.5345 10.0585 22.7142 10.2043C22.866 10.3274 22.9077 10.4938 22.9277 10.6105C22.9477 10.7272 22.9726 10.9932 22.9528 11.201C22.7271 13.5729 21.7503 19.3287 21.2534 21.9852C21.0431 23.1093 20.6291 23.4862 20.2283 23.5231C19.3572 23.6032 18.6957 22.9474 17.852 22.3944C16.5318 21.529 15.786 20.9902 14.5045 20.1458C13.0236 19.1698 13.9836 18.6334 14.8276 17.7568C15.0485 17.5274 18.8865 14.0365 18.9608 13.7198C18.9701 13.6802 18.9787 13.5326 18.891 13.4546C18.8033 13.3766 18.6738 13.4033 18.5804 13.4245C18.448 13.4545 16.339 14.8485 12.2533 17.6065C11.6547 18.0175 11.1125 18.2178 10.6266 18.2073C10.0911 18.1958 9.06083 17.9045 8.29495 17.6555C7.35558 17.3502 6.60898 17.1888 6.67399 16.6702C6.70785 16.4001 7.07982 16.1238 7.7899 15.8414Z" fill="white"/>
<defs>
<linearGradient id="paint0_linear" x1="16" y1="1" x2="16" y2="30.7775" gradientUnits="userSpaceOnUse">
<stop stop-color="#4BBAF8"/>
<stop offset="1" stop-color="#0E95E3"/>
</linearGradient>
</defs>
</svg>
