<svg width="32" height="32" viewBox="0 0 32 32" fill="none" xmlns="http://www.w3.org/2000/svg">
<path fill-rule="evenodd" clip-rule="evenodd" d="M16 1C7.71271 1 1 7.71271 1 16C1 22.6298 5.30018 28.2468 11.2578 30.2357C12.0037 30.3738 12.2799 29.9134 12.2799 29.5083C12.2799 29.1492 12.2707 28.2099 12.2615 26.9576C8.09024 27.86 7.20626 24.9503 7.20626 24.9503C6.52486 23.2192 5.53959 22.7495 5.53959 22.7495C4.1768 21.8195 5.64088 21.8379 5.64088 21.8379C7.1418 21.9484 7.94291 23.3849 7.94291 23.3849C9.27808 25.6777 11.4512 25.0147 12.3076 24.628C12.4457 23.6611 12.8324 22.9982 13.256 22.6206C9.93186 22.2523 6.43278 20.9632 6.43278 15.2173C6.43278 13.5783 7.01289 12.2431 7.97974 11.1934C7.8232 10.8066 7.30755 9.28729 8.11786 7.22468C8.11786 7.22468 9.37937 6.81952 12.2431 8.76243C13.4401 8.43094 14.7201 8.26519 16 8.25599C17.2707 8.26519 18.5599 8.43094 19.7569 8.76243C22.6206 6.81952 23.8821 7.22468 23.8821 7.22468C24.7017 9.28729 24.186 10.8158 24.0295 11.1934C24.9871 12.2431 25.5672 13.5783 25.5672 15.2173C25.5672 20.9816 22.0589 22.2431 18.7164 22.6206C19.2505 23.081 19.7385 24.0018 19.7385 25.4015C19.7385 27.4088 19.7201 29.0203 19.7201 29.5175C19.7201 29.9226 19.9871 30.3831 20.7514 30.2357C26.709 28.2468 31 22.6298 31 16.0092C31 7.71271 24.2873 1 16 1Z" fill="white"/>
</svg>
